<svg width="114" height="30" viewBox="0 0 114 30" fill="none" xmlns="http://www.w3.org/2000/svg">
    <path d="M19 0C24.4 0 27.1 4.38538 27.1 8.17276V13.6545H38V15.2492C38 19.9336 34.4 22.3256 27.1 22.3256V21.8272C27.1 25.6146 24.4 30 19 30C13.8 30 11.1 26.0133 10.9 22.4252C3.6 22.3256 0 19.9336 0 15.2492V13.6545H10.9V8.17276C10.9 4.38538 13.6 0 19 0ZM19 15.2492H1.6C1.6 18.7375 4.7 20.5316 10.8 20.7309H19V22.3256H12.5C12.7 25.5149 14.9 28.3056 19 28.3056C23.3 28.3056 25.5 25.2159 25.5 21.8272V21.5282C25.4 17.3422 23.2 15.2492 19 15.2492ZM36.4 15.2492H27.2V20.7309C33.3 20.4319 36.4 18.6379 36.4 15.2492ZM16.3 2.19269L16.2 2.29236C13.8 3.58804 12.5 6.37874 12.5 8.9701V13.5548H19C22 13.5548 24.2 14.3522 25.5 16.0465V11.0631C16.3 11.1628 16.3 6.87708 16.3 2.19269ZM19 1.59468C18.6 1.59468 18.3 1.59468 17.9 1.69435V1.59468C17.9 7.07641 18.4 9.46844 25.5 9.46844V8.9701C25.5 5.5814 23.3 1.59468 19 1.59468ZM21.4 3.78738C22.4 3.78738 23.3 4.68439 23.3 5.68106C23.3 6.67774 22.4 7.57475 21.4 7.57475C20.4 7.57475 19.5 6.67774 19.5 5.68106C19.5 4.68439 20.4 3.78738 21.4 3.78738ZM21.4 4.88372C21 4.88372 20.6 5.28239 20.6 5.68106C20.6 6.1794 21 6.47841 21.4 6.47841C21.8 6.47841 22.2 6.07973 22.2 5.68106C22.3 5.28239 21.9 4.88372 21.4 4.88372Z" fill="url(#paint0_linear)"/>
    <path d="M56.6 11.1628H52.2V22.9236H49.3V11.1628H45V8.77076H56.6V11.1628ZM60.1 23.1229C58.1 22.8239 57.3 22.6246 56.3 21.7276C55.3 20.8306 54.8 19.5349 54.8 17.9402V17.6412C54.8 16.5448 55 15.6478 55.4 14.8505C55.8 14.0532 56.4 13.3555 57.1 12.9568C57.8 12.5581 58.7 12.2591 59.7 12.2591C61.1 12.2591 62.3 12.7575 63.1 13.6545C63.9 14.5515 64.2 15.8472 64.2 17.1429C64.2 18.2392 63.3 18.6379 62.7 18.6379C61.1 18.6379 59.4 18.6379 57.6 18.6379C57.7 19.3355 58 19.8339 58.4 20.3322C58.8 20.8306 59.4 20.9302 60.1 20.9302C60.8 20.9302 62.1 20.9302 64 20.9302V23.2226C62.2 23.1229 60.9 23.1229 60.1 23.1229ZM59.7 14.4518C59.1 14.4518 58.7 14.6512 58.3 15.0498C57.9 15.4485 57.7 15.9468 57.6 16.6445H61.5V16.4452C61.5 15.8472 61.3 15.3488 61 14.9502C60.7 14.5515 60.3 14.4518 59.7 14.4518ZM71 20.0332C71 19.7342 70.8 19.4352 70.5 19.2359C70.2 19.0365 69.8 18.9369 69.2 18.7375L69 18.6379C66.7 18.1395 65.5 17.0432 65.5 15.4485C65.5 14.5515 65.9 13.7541 66.6 13.1561C67.3 12.5581 68.3 12.4585 69.4 12.4585C70.2 12.4585 71.6 12.4585 73.5 12.4585V14.5515C71 14.5515 69.6 14.5515 69.4 14.5515C68.4 14.5515 68 15.1495 68 15.4485C68 15.7475 68.1 16.0465 68.4 16.2458C68.6 16.4452 69 16.5448 69.6 16.7442H69.8C70.5 16.8439 71 17.0432 71.4 17.2425C72.8 17.7409 73.5 18.7375 73.5 20.0332C73.5 21.0299 73.1 21.7276 72.3 22.3256C71.5 22.9236 70.5 23.2226 69.3 23.2226C68.8 23.2226 67.4 23.2226 65.4 23.2226V20.9302C67.7 20.9302 69 20.9302 69.3 20.9302C69.9 20.8306 71 20.6312 71 20.0332ZM78.9 9.76744V12.3588H80.7V14.4518H78.9V19.7342C78.9 20.1329 79 20.4319 79.1 20.5316C79.2 20.6312 79.5 20.8306 80 20.8306C80.2 20.8306 80.4 20.8306 80.7 20.8306V22.9236C80 22.9236 79.5 22.9236 79.1 22.9236C77.1 22.9236 76.1 22.1262 76.1 20.1329V14.4518H74.6V12.3588H76.1V9.76744H78.9ZM85.8 13.1561C86.5 12.2591 87.5 12.2591 88.6 12.2591C90.9 12.2591 91.9 13.5548 91.9 16.2458V22.9236H89.2V16.2458C89.2 15.6478 89.1 15.1495 88.8 14.9502C88.5 14.7508 88.3 14.5515 87.5 14.5515C86.8 14.5515 85.7 15.9468 85.7 16.4452C85.7 16.7442 85.7 18.9369 85.7 23.0233H83V7.97342H85.8V13.1561ZM99.8 21.8272C99.1 22.6246 98.2 22.9236 96.9 22.9236C95 22.9236 93.4 21.8272 93.4 19.2359V12.4585H96.2V19.2359C96.2 20.3322 96.7 20.9302 97.7 20.9302C98.7 20.9302 99.3 20.6312 99.7 19.9336V12.4585H102.5V20.4319C102.5 20.7309 102.6 20.9302 102.8 20.9302H103.2V22.9236C101.9 22.9236 101.2 22.9236 101.1 22.9236C100.2 22.9236 99.8 21.8272 99.8 21.8272ZM107.2 7.97342V13.3555C107.9 12.5581 108.7 12.2591 109.8 12.2591C111.1 12.2591 112.1 12.7575 112.8 13.6545C113.5 14.5515 113.9 15.9468 113.9 17.6412V17.8405C113.9 19.5349 113.5 20.8306 112.8 21.8272C112.1 22.8239 111.1 23.2226 109.8 23.2226C108.7 23.2226 107.7 22.8239 107.1 21.9269C107.1 22.6246 106.6 23.0233 105.5 23.0233H104.4V7.97342H107.2ZM109.1 14.4518C108.2 14.4518 107.6 14.8505 107.2 15.5482V19.7342C107.5 20.4319 108.2 20.8306 109.1 20.8306C110 20.8306 110.6 20.4319 110.9 19.5349C111 19.1362 111.1 18.4385 111.1 17.5415C111.1 16.4452 110.9 15.7475 110.6 15.2492C110.2 14.6512 109.7 14.4518 109.1 14.4518Z" fill="url(#paint1_linear)"/>
    <defs>
        <linearGradient id="paint0_linear" x1="37.9994" y1="5.63123" x2="5.57955" y2="31.3125" gradientUnits="userSpaceOnUse">
        <stop stop-color="#0059B3"/>
        <stop offset="1" stop-color="#004080"/>
        </linearGradient>
        <linearGradient id="paint1_linear" x1="113.768" y1="15.5539" x2="44.991" y2="15.5539" gradientUnits="userSpaceOnUse">
        <stop stop-color="#0059B3"/>
        <stop offset="0.4564" stop-color="#0059B3"/>
        <stop offset="0.473" stop-color="#004080"/>
        <stop offset="1" stop-color="#004080"/>
        </linearGradient>
    </defs>
</svg>
